<mxfile host="Electron" agent="Mozilla/5.0 (Windows NT 10.0; Win64; x64) AppleWebKit/537.36 (KHTML, like Gecko) draw.io/28.0.6 Chrome/138.0.7204.100 Electron/37.2.3 Safari/537.36" version="28.0.6">
  <diagram name="Page-1" id="UXrEmObaKgrjl1nzde_g">
    <mxGraphModel dx="2031" dy="1045" grid="1" gridSize="10" guides="1" tooltips="1" connect="1" arrows="1" fold="1" page="1" pageScale="1" pageWidth="1920" pageHeight="1200" math="0" shadow="0">
      <root>
        <mxCell id="0" />
        <mxCell id="1" parent="0" />
        <mxCell id="TvVkje1gSHfE_WoLKXOJ-14" value="gold.dim_customer" style="shape=table;startSize=50;container=1;collapsible=1;childLayout=tableLayout;fixedRows=1;rowLines=0;fontStyle=1;align=center;resizeLast=1;html=1;fontSize=25;fillColor=#fff2cc;strokeColor=#d6b656;rounded=1;arcSize=27;" parent="1" vertex="1">
          <mxGeometry x="200" y="220" width="360" height="570" as="geometry" />
        </mxCell>
        <mxCell id="TvVkje1gSHfE_WoLKXOJ-15" value="" style="shape=tableRow;horizontal=0;startSize=0;swimlaneHead=0;swimlaneBody=0;fillColor=none;collapsible=0;dropTarget=0;points=[[0,0.5],[1,0.5]];portConstraint=eastwest;top=0;left=0;right=0;bottom=1;fontSize=25;fontStyle=0" parent="TvVkje1gSHfE_WoLKXOJ-14" vertex="1">
          <mxGeometry y="50" width="360" height="50" as="geometry" />
        </mxCell>
        <mxCell id="TvVkje1gSHfE_WoLKXOJ-16" value="PK&lt;span style=&quot;white-space: pre;&quot;&gt;&#x9;&lt;/span&gt;" style="shape=partialRectangle;connectable=0;fillColor=none;top=0;left=0;bottom=0;right=0;fontStyle=1;overflow=hidden;whiteSpace=wrap;html=1;fontSize=25;" parent="TvVkje1gSHfE_WoLKXOJ-15" vertex="1">
          <mxGeometry width="80" height="50" as="geometry">
            <mxRectangle width="80" height="50" as="alternateBounds" />
          </mxGeometry>
        </mxCell>
        <mxCell id="TvVkje1gSHfE_WoLKXOJ-17" value="customer_key" style="shape=partialRectangle;connectable=0;fillColor=none;top=0;left=0;bottom=0;right=0;align=left;spacingLeft=6;fontStyle=5;overflow=hidden;whiteSpace=wrap;html=1;fontSize=25;" parent="TvVkje1gSHfE_WoLKXOJ-15" vertex="1">
          <mxGeometry x="80" width="280" height="50" as="geometry">
            <mxRectangle width="280" height="50" as="alternateBounds" />
          </mxGeometry>
        </mxCell>
        <mxCell id="TvVkje1gSHfE_WoLKXOJ-18" value="" style="shape=tableRow;horizontal=0;startSize=0;swimlaneHead=0;swimlaneBody=0;fillColor=none;collapsible=0;dropTarget=0;points=[[0,0.5],[1,0.5]];portConstraint=eastwest;top=0;left=0;right=0;bottom=0;fontSize=25;fontStyle=0" parent="TvVkje1gSHfE_WoLKXOJ-14" vertex="1">
          <mxGeometry y="100" width="360" height="70" as="geometry" />
        </mxCell>
        <mxCell id="TvVkje1gSHfE_WoLKXOJ-19" value="" style="shape=partialRectangle;connectable=0;fillColor=none;top=0;left=0;bottom=0;right=0;editable=1;overflow=hidden;whiteSpace=wrap;html=1;fontSize=25;fontStyle=0" parent="TvVkje1gSHfE_WoLKXOJ-18" vertex="1">
          <mxGeometry width="80" height="70" as="geometry">
            <mxRectangle width="80" height="70" as="alternateBounds" />
          </mxGeometry>
        </mxCell>
        <mxCell id="TvVkje1gSHfE_WoLKXOJ-20" value="customer_ID" style="shape=partialRectangle;connectable=0;fillColor=none;top=0;left=0;bottom=0;right=0;align=left;spacingLeft=6;overflow=hidden;whiteSpace=wrap;html=1;fontSize=25;fontStyle=0" parent="TvVkje1gSHfE_WoLKXOJ-18" vertex="1">
          <mxGeometry x="80" width="280" height="70" as="geometry">
            <mxRectangle width="280" height="70" as="alternateBounds" />
          </mxGeometry>
        </mxCell>
        <mxCell id="TvVkje1gSHfE_WoLKXOJ-21" value="" style="shape=tableRow;horizontal=0;startSize=0;swimlaneHead=0;swimlaneBody=0;fillColor=none;collapsible=0;dropTarget=0;points=[[0,0.5],[1,0.5]];portConstraint=eastwest;top=0;left=0;right=0;bottom=0;fontSize=25;fontStyle=0" parent="TvVkje1gSHfE_WoLKXOJ-14" vertex="1">
          <mxGeometry y="170" width="360" height="30" as="geometry" />
        </mxCell>
        <mxCell id="TvVkje1gSHfE_WoLKXOJ-22" value="" style="shape=partialRectangle;connectable=0;fillColor=none;top=0;left=0;bottom=0;right=0;editable=1;overflow=hidden;whiteSpace=wrap;html=1;fontSize=25;fontStyle=0" parent="TvVkje1gSHfE_WoLKXOJ-21" vertex="1">
          <mxGeometry width="80" height="30" as="geometry">
            <mxRectangle width="80" height="30" as="alternateBounds" />
          </mxGeometry>
        </mxCell>
        <mxCell id="TvVkje1gSHfE_WoLKXOJ-23" value="customer_Number" style="shape=partialRectangle;connectable=0;fillColor=none;top=0;left=0;bottom=0;right=0;align=left;spacingLeft=6;overflow=hidden;whiteSpace=wrap;html=1;fontSize=25;fontStyle=0" parent="TvVkje1gSHfE_WoLKXOJ-21" vertex="1">
          <mxGeometry x="80" width="280" height="30" as="geometry">
            <mxRectangle width="280" height="30" as="alternateBounds" />
          </mxGeometry>
        </mxCell>
        <mxCell id="TvVkje1gSHfE_WoLKXOJ-24" value="" style="shape=tableRow;horizontal=0;startSize=0;swimlaneHead=0;swimlaneBody=0;fillColor=none;collapsible=0;dropTarget=0;points=[[0,0.5],[1,0.5]];portConstraint=eastwest;top=0;left=0;right=0;bottom=0;fontSize=25;fontStyle=0" parent="TvVkje1gSHfE_WoLKXOJ-14" vertex="1">
          <mxGeometry y="200" width="360" height="70" as="geometry" />
        </mxCell>
        <mxCell id="TvVkje1gSHfE_WoLKXOJ-25" value="" style="shape=partialRectangle;connectable=0;fillColor=none;top=0;left=0;bottom=0;right=0;editable=1;overflow=hidden;whiteSpace=wrap;html=1;fontSize=25;fontStyle=0" parent="TvVkje1gSHfE_WoLKXOJ-24" vertex="1">
          <mxGeometry width="80" height="70" as="geometry">
            <mxRectangle width="80" height="70" as="alternateBounds" />
          </mxGeometry>
        </mxCell>
        <mxCell id="TvVkje1gSHfE_WoLKXOJ-26" value="first_name" style="shape=partialRectangle;connectable=0;fillColor=none;top=0;left=0;bottom=0;right=0;align=left;spacingLeft=6;overflow=hidden;whiteSpace=wrap;html=1;fontSize=25;fontStyle=0" parent="TvVkje1gSHfE_WoLKXOJ-24" vertex="1">
          <mxGeometry x="80" width="280" height="70" as="geometry">
            <mxRectangle width="280" height="70" as="alternateBounds" />
          </mxGeometry>
        </mxCell>
        <mxCell id="TvVkje1gSHfE_WoLKXOJ-27" value="" style="shape=tableRow;horizontal=0;startSize=0;swimlaneHead=0;swimlaneBody=0;fillColor=none;collapsible=0;dropTarget=0;points=[[0,0.5],[1,0.5]];portConstraint=eastwest;top=0;left=0;right=0;bottom=0;fontSize=25;fontStyle=0" parent="TvVkje1gSHfE_WoLKXOJ-14" vertex="1">
          <mxGeometry y="270" width="360" height="60" as="geometry" />
        </mxCell>
        <mxCell id="TvVkje1gSHfE_WoLKXOJ-28" value="" style="shape=partialRectangle;connectable=0;fillColor=none;top=0;left=0;bottom=0;right=0;editable=1;overflow=hidden;whiteSpace=wrap;html=1;fontSize=25;fontStyle=0" parent="TvVkje1gSHfE_WoLKXOJ-27" vertex="1">
          <mxGeometry width="80" height="60" as="geometry">
            <mxRectangle width="80" height="60" as="alternateBounds" />
          </mxGeometry>
        </mxCell>
        <mxCell id="TvVkje1gSHfE_WoLKXOJ-29" value="last_name" style="shape=partialRectangle;connectable=0;fillColor=none;top=0;left=0;bottom=0;right=0;align=left;spacingLeft=6;overflow=hidden;whiteSpace=wrap;html=1;fontSize=25;fontStyle=0" parent="TvVkje1gSHfE_WoLKXOJ-27" vertex="1">
          <mxGeometry x="80" width="280" height="60" as="geometry">
            <mxRectangle width="280" height="60" as="alternateBounds" />
          </mxGeometry>
        </mxCell>
        <mxCell id="TvVkje1gSHfE_WoLKXOJ-30" value="" style="shape=tableRow;horizontal=0;startSize=0;swimlaneHead=0;swimlaneBody=0;fillColor=none;collapsible=0;dropTarget=0;points=[[0,0.5],[1,0.5]];portConstraint=eastwest;top=0;left=0;right=0;bottom=0;fontSize=25;fontStyle=0" parent="TvVkje1gSHfE_WoLKXOJ-14" vertex="1">
          <mxGeometry y="330" width="360" height="50" as="geometry" />
        </mxCell>
        <mxCell id="TvVkje1gSHfE_WoLKXOJ-31" value="" style="shape=partialRectangle;connectable=0;fillColor=none;top=0;left=0;bottom=0;right=0;editable=1;overflow=hidden;whiteSpace=wrap;html=1;fontSize=25;fontStyle=0" parent="TvVkje1gSHfE_WoLKXOJ-30" vertex="1">
          <mxGeometry width="80" height="50" as="geometry">
            <mxRectangle width="80" height="50" as="alternateBounds" />
          </mxGeometry>
        </mxCell>
        <mxCell id="TvVkje1gSHfE_WoLKXOJ-32" value="country" style="shape=partialRectangle;connectable=0;fillColor=none;top=0;left=0;bottom=0;right=0;align=left;spacingLeft=6;overflow=hidden;whiteSpace=wrap;html=1;fontSize=25;fontStyle=0" parent="TvVkje1gSHfE_WoLKXOJ-30" vertex="1">
          <mxGeometry x="80" width="280" height="50" as="geometry">
            <mxRectangle width="280" height="50" as="alternateBounds" />
          </mxGeometry>
        </mxCell>
        <mxCell id="TvVkje1gSHfE_WoLKXOJ-33" value="" style="shape=tableRow;horizontal=0;startSize=0;swimlaneHead=0;swimlaneBody=0;fillColor=none;collapsible=0;dropTarget=0;points=[[0,0.5],[1,0.5]];portConstraint=eastwest;top=0;left=0;right=0;bottom=0;fontSize=25;fontStyle=0" parent="TvVkje1gSHfE_WoLKXOJ-14" vertex="1">
          <mxGeometry y="380" width="360" height="60" as="geometry" />
        </mxCell>
        <mxCell id="TvVkje1gSHfE_WoLKXOJ-34" value="" style="shape=partialRectangle;connectable=0;fillColor=none;top=0;left=0;bottom=0;right=0;editable=1;overflow=hidden;whiteSpace=wrap;html=1;fontSize=25;fontStyle=0" parent="TvVkje1gSHfE_WoLKXOJ-33" vertex="1">
          <mxGeometry width="80" height="60" as="geometry">
            <mxRectangle width="80" height="60" as="alternateBounds" />
          </mxGeometry>
        </mxCell>
        <mxCell id="TvVkje1gSHfE_WoLKXOJ-35" value="marital_status" style="shape=partialRectangle;connectable=0;fillColor=none;top=0;left=0;bottom=0;right=0;align=left;spacingLeft=6;overflow=hidden;whiteSpace=wrap;html=1;fontSize=25;fontStyle=0" parent="TvVkje1gSHfE_WoLKXOJ-33" vertex="1">
          <mxGeometry x="80" width="280" height="60" as="geometry">
            <mxRectangle width="280" height="60" as="alternateBounds" />
          </mxGeometry>
        </mxCell>
        <mxCell id="TvVkje1gSHfE_WoLKXOJ-36" value="" style="shape=tableRow;horizontal=0;startSize=0;swimlaneHead=0;swimlaneBody=0;fillColor=none;collapsible=0;dropTarget=0;points=[[0,0.5],[1,0.5]];portConstraint=eastwest;top=0;left=0;right=0;bottom=0;fontSize=25;fontStyle=0" parent="TvVkje1gSHfE_WoLKXOJ-14" vertex="1">
          <mxGeometry y="440" width="360" height="60" as="geometry" />
        </mxCell>
        <mxCell id="TvVkje1gSHfE_WoLKXOJ-37" value="" style="shape=partialRectangle;connectable=0;fillColor=none;top=0;left=0;bottom=0;right=0;editable=1;overflow=hidden;whiteSpace=wrap;html=1;fontSize=25;fontStyle=0" parent="TvVkje1gSHfE_WoLKXOJ-36" vertex="1">
          <mxGeometry width="80" height="60" as="geometry">
            <mxRectangle width="80" height="60" as="alternateBounds" />
          </mxGeometry>
        </mxCell>
        <mxCell id="TvVkje1gSHfE_WoLKXOJ-38" value="gender" style="shape=partialRectangle;connectable=0;fillColor=none;top=0;left=0;bottom=0;right=0;align=left;spacingLeft=6;overflow=hidden;whiteSpace=wrap;html=1;fontSize=25;fontStyle=0" parent="TvVkje1gSHfE_WoLKXOJ-36" vertex="1">
          <mxGeometry x="80" width="280" height="60" as="geometry">
            <mxRectangle width="280" height="60" as="alternateBounds" />
          </mxGeometry>
        </mxCell>
        <mxCell id="TvVkje1gSHfE_WoLKXOJ-39" value="" style="shape=tableRow;horizontal=0;startSize=0;swimlaneHead=0;swimlaneBody=0;fillColor=none;collapsible=0;dropTarget=0;points=[[0,0.5],[1,0.5]];portConstraint=eastwest;top=0;left=0;right=0;bottom=0;fontSize=25;fontStyle=0" parent="TvVkje1gSHfE_WoLKXOJ-14" vertex="1">
          <mxGeometry y="500" width="360" height="60" as="geometry" />
        </mxCell>
        <mxCell id="TvVkje1gSHfE_WoLKXOJ-40" value="" style="shape=partialRectangle;connectable=0;fillColor=none;top=0;left=0;bottom=0;right=0;editable=1;overflow=hidden;whiteSpace=wrap;html=1;fontSize=25;fontStyle=0" parent="TvVkje1gSHfE_WoLKXOJ-39" vertex="1">
          <mxGeometry width="80" height="60" as="geometry">
            <mxRectangle width="80" height="60" as="alternateBounds" />
          </mxGeometry>
        </mxCell>
        <mxCell id="TvVkje1gSHfE_WoLKXOJ-41" value="birth_date" style="shape=partialRectangle;connectable=0;fillColor=none;top=0;left=0;bottom=0;right=0;align=left;spacingLeft=6;overflow=hidden;whiteSpace=wrap;html=1;fontSize=25;fontStyle=0" parent="TvVkje1gSHfE_WoLKXOJ-39" vertex="1">
          <mxGeometry x="80" width="280" height="60" as="geometry">
            <mxRectangle width="280" height="60" as="alternateBounds" />
          </mxGeometry>
        </mxCell>
        <mxCell id="TvVkje1gSHfE_WoLKXOJ-42" value="gold.dim_product" style="shape=table;startSize=50;container=1;collapsible=1;childLayout=tableLayout;fixedRows=1;rowLines=0;fontStyle=1;align=center;resizeLast=1;html=1;fontSize=25;fillColor=#fff2cc;strokeColor=#d6b656;rounded=1;arcSize=27;" parent="1" vertex="1">
          <mxGeometry x="1350" y="220" width="360" height="720" as="geometry" />
        </mxCell>
        <mxCell id="TvVkje1gSHfE_WoLKXOJ-43" value="" style="shape=tableRow;horizontal=0;startSize=0;swimlaneHead=0;swimlaneBody=0;fillColor=none;collapsible=0;dropTarget=0;points=[[0,0.5],[1,0.5]];portConstraint=eastwest;top=0;left=0;right=0;bottom=1;fontSize=25;fontStyle=0" parent="TvVkje1gSHfE_WoLKXOJ-42" vertex="1">
          <mxGeometry y="50" width="360" height="50" as="geometry" />
        </mxCell>
        <mxCell id="TvVkje1gSHfE_WoLKXOJ-44" value="PK&lt;span style=&quot;white-space: pre;&quot;&gt;&#x9;&lt;/span&gt;" style="shape=partialRectangle;connectable=0;fillColor=none;top=0;left=0;bottom=0;right=0;fontStyle=1;overflow=hidden;whiteSpace=wrap;html=1;fontSize=25;" parent="TvVkje1gSHfE_WoLKXOJ-43" vertex="1">
          <mxGeometry width="80" height="50" as="geometry">
            <mxRectangle width="80" height="50" as="alternateBounds" />
          </mxGeometry>
        </mxCell>
        <mxCell id="TvVkje1gSHfE_WoLKXOJ-45" value="&lt;span style=&quot;font-weight: normal;&quot;&gt;product_key&lt;/span&gt;" style="shape=partialRectangle;connectable=0;fillColor=none;top=0;left=0;bottom=0;right=0;align=left;spacingLeft=6;fontStyle=5;overflow=hidden;whiteSpace=wrap;html=1;fontSize=25;" parent="TvVkje1gSHfE_WoLKXOJ-43" vertex="1">
          <mxGeometry x="80" width="280" height="50" as="geometry">
            <mxRectangle width="280" height="50" as="alternateBounds" />
          </mxGeometry>
        </mxCell>
        <mxCell id="TvVkje1gSHfE_WoLKXOJ-46" value="" style="shape=tableRow;horizontal=0;startSize=0;swimlaneHead=0;swimlaneBody=0;fillColor=none;collapsible=0;dropTarget=0;points=[[0,0.5],[1,0.5]];portConstraint=eastwest;top=0;left=0;right=0;bottom=0;fontSize=25;fontStyle=0" parent="TvVkje1gSHfE_WoLKXOJ-42" vertex="1">
          <mxGeometry y="100" width="360" height="80" as="geometry" />
        </mxCell>
        <mxCell id="TvVkje1gSHfE_WoLKXOJ-47" value="" style="shape=partialRectangle;connectable=0;fillColor=none;top=0;left=0;bottom=0;right=0;editable=1;overflow=hidden;whiteSpace=wrap;html=1;fontSize=25;fontStyle=0" parent="TvVkje1gSHfE_WoLKXOJ-46" vertex="1">
          <mxGeometry width="80" height="80" as="geometry">
            <mxRectangle width="80" height="80" as="alternateBounds" />
          </mxGeometry>
        </mxCell>
        <mxCell id="TvVkje1gSHfE_WoLKXOJ-48" value="product_id" style="shape=partialRectangle;connectable=0;fillColor=none;top=0;left=0;bottom=0;right=0;align=left;spacingLeft=6;overflow=hidden;whiteSpace=wrap;html=1;fontSize=25;fontStyle=0" parent="TvVkje1gSHfE_WoLKXOJ-46" vertex="1">
          <mxGeometry x="80" width="280" height="80" as="geometry">
            <mxRectangle width="280" height="80" as="alternateBounds" />
          </mxGeometry>
        </mxCell>
        <mxCell id="TvVkje1gSHfE_WoLKXOJ-49" value="" style="shape=tableRow;horizontal=0;startSize=0;swimlaneHead=0;swimlaneBody=0;fillColor=none;collapsible=0;dropTarget=0;points=[[0,0.5],[1,0.5]];portConstraint=eastwest;top=0;left=0;right=0;bottom=0;fontSize=25;fontStyle=0" parent="TvVkje1gSHfE_WoLKXOJ-42" vertex="1">
          <mxGeometry y="180" width="360" height="40" as="geometry" />
        </mxCell>
        <mxCell id="TvVkje1gSHfE_WoLKXOJ-50" value="" style="shape=partialRectangle;connectable=0;fillColor=none;top=0;left=0;bottom=0;right=0;editable=1;overflow=hidden;whiteSpace=wrap;html=1;fontSize=25;fontStyle=0" parent="TvVkje1gSHfE_WoLKXOJ-49" vertex="1">
          <mxGeometry width="80" height="40" as="geometry">
            <mxRectangle width="80" height="40" as="alternateBounds" />
          </mxGeometry>
        </mxCell>
        <mxCell id="TvVkje1gSHfE_WoLKXOJ-51" value="product_Number" style="shape=partialRectangle;connectable=0;fillColor=none;top=0;left=0;bottom=0;right=0;align=left;spacingLeft=6;overflow=hidden;whiteSpace=wrap;html=1;fontSize=25;fontStyle=0" parent="TvVkje1gSHfE_WoLKXOJ-49" vertex="1">
          <mxGeometry x="80" width="280" height="40" as="geometry">
            <mxRectangle width="280" height="40" as="alternateBounds" />
          </mxGeometry>
        </mxCell>
        <mxCell id="TvVkje1gSHfE_WoLKXOJ-52" value="" style="shape=tableRow;horizontal=0;startSize=0;swimlaneHead=0;swimlaneBody=0;fillColor=none;collapsible=0;dropTarget=0;points=[[0,0.5],[1,0.5]];portConstraint=eastwest;top=0;left=0;right=0;bottom=0;fontSize=25;fontStyle=0" parent="TvVkje1gSHfE_WoLKXOJ-42" vertex="1">
          <mxGeometry y="220" width="360" height="70" as="geometry" />
        </mxCell>
        <mxCell id="TvVkje1gSHfE_WoLKXOJ-53" value="" style="shape=partialRectangle;connectable=0;fillColor=none;top=0;left=0;bottom=0;right=0;editable=1;overflow=hidden;whiteSpace=wrap;html=1;fontSize=25;fontStyle=0" parent="TvVkje1gSHfE_WoLKXOJ-52" vertex="1">
          <mxGeometry width="80" height="70" as="geometry">
            <mxRectangle width="80" height="70" as="alternateBounds" />
          </mxGeometry>
        </mxCell>
        <mxCell id="TvVkje1gSHfE_WoLKXOJ-54" value="product_name" style="shape=partialRectangle;connectable=0;fillColor=none;top=0;left=0;bottom=0;right=0;align=left;spacingLeft=6;overflow=hidden;whiteSpace=wrap;html=1;fontSize=25;fontStyle=0" parent="TvVkje1gSHfE_WoLKXOJ-52" vertex="1">
          <mxGeometry x="80" width="280" height="70" as="geometry">
            <mxRectangle width="280" height="70" as="alternateBounds" />
          </mxGeometry>
        </mxCell>
        <mxCell id="TvVkje1gSHfE_WoLKXOJ-55" value="" style="shape=tableRow;horizontal=0;startSize=0;swimlaneHead=0;swimlaneBody=0;fillColor=none;collapsible=0;dropTarget=0;points=[[0,0.5],[1,0.5]];portConstraint=eastwest;top=0;left=0;right=0;bottom=0;fontSize=25;fontStyle=0" parent="TvVkje1gSHfE_WoLKXOJ-42" vertex="1">
          <mxGeometry y="290" width="360" height="60" as="geometry" />
        </mxCell>
        <mxCell id="TvVkje1gSHfE_WoLKXOJ-56" value="" style="shape=partialRectangle;connectable=0;fillColor=none;top=0;left=0;bottom=0;right=0;editable=1;overflow=hidden;whiteSpace=wrap;html=1;fontSize=25;fontStyle=0" parent="TvVkje1gSHfE_WoLKXOJ-55" vertex="1">
          <mxGeometry width="80" height="60" as="geometry">
            <mxRectangle width="80" height="60" as="alternateBounds" />
          </mxGeometry>
        </mxCell>
        <mxCell id="TvVkje1gSHfE_WoLKXOJ-57" value="category_id" style="shape=partialRectangle;connectable=0;fillColor=none;top=0;left=0;bottom=0;right=0;align=left;spacingLeft=6;overflow=hidden;whiteSpace=wrap;html=1;fontSize=25;fontStyle=0" parent="TvVkje1gSHfE_WoLKXOJ-55" vertex="1">
          <mxGeometry x="80" width="280" height="60" as="geometry">
            <mxRectangle width="280" height="60" as="alternateBounds" />
          </mxGeometry>
        </mxCell>
        <mxCell id="TvVkje1gSHfE_WoLKXOJ-58" value="" style="shape=tableRow;horizontal=0;startSize=0;swimlaneHead=0;swimlaneBody=0;fillColor=none;collapsible=0;dropTarget=0;points=[[0,0.5],[1,0.5]];portConstraint=eastwest;top=0;left=0;right=0;bottom=0;fontSize=25;fontStyle=0" parent="TvVkje1gSHfE_WoLKXOJ-42" vertex="1">
          <mxGeometry y="350" width="360" height="60" as="geometry" />
        </mxCell>
        <mxCell id="TvVkje1gSHfE_WoLKXOJ-59" value="" style="shape=partialRectangle;connectable=0;fillColor=none;top=0;left=0;bottom=0;right=0;editable=1;overflow=hidden;whiteSpace=wrap;html=1;fontSize=25;fontStyle=0" parent="TvVkje1gSHfE_WoLKXOJ-58" vertex="1">
          <mxGeometry width="80" height="60" as="geometry">
            <mxRectangle width="80" height="60" as="alternateBounds" />
          </mxGeometry>
        </mxCell>
        <mxCell id="TvVkje1gSHfE_WoLKXOJ-60" value="category" style="shape=partialRectangle;connectable=0;fillColor=none;top=0;left=0;bottom=0;right=0;align=left;spacingLeft=6;overflow=hidden;whiteSpace=wrap;html=1;fontSize=25;fontStyle=0" parent="TvVkje1gSHfE_WoLKXOJ-58" vertex="1">
          <mxGeometry x="80" width="280" height="60" as="geometry">
            <mxRectangle width="280" height="60" as="alternateBounds" />
          </mxGeometry>
        </mxCell>
        <mxCell id="TvVkje1gSHfE_WoLKXOJ-61" value="" style="shape=tableRow;horizontal=0;startSize=0;swimlaneHead=0;swimlaneBody=0;fillColor=none;collapsible=0;dropTarget=0;points=[[0,0.5],[1,0.5]];portConstraint=eastwest;top=0;left=0;right=0;bottom=0;fontSize=25;fontStyle=0" parent="TvVkje1gSHfE_WoLKXOJ-42" vertex="1">
          <mxGeometry y="410" width="360" height="60" as="geometry" />
        </mxCell>
        <mxCell id="TvVkje1gSHfE_WoLKXOJ-62" value="" style="shape=partialRectangle;connectable=0;fillColor=none;top=0;left=0;bottom=0;right=0;editable=1;overflow=hidden;whiteSpace=wrap;html=1;fontSize=25;fontStyle=0" parent="TvVkje1gSHfE_WoLKXOJ-61" vertex="1">
          <mxGeometry width="80" height="60" as="geometry">
            <mxRectangle width="80" height="60" as="alternateBounds" />
          </mxGeometry>
        </mxCell>
        <mxCell id="TvVkje1gSHfE_WoLKXOJ-63" value="subcategory" style="shape=partialRectangle;connectable=0;fillColor=none;top=0;left=0;bottom=0;right=0;align=left;spacingLeft=6;overflow=hidden;whiteSpace=wrap;html=1;fontSize=25;fontStyle=0" parent="TvVkje1gSHfE_WoLKXOJ-61" vertex="1">
          <mxGeometry x="80" width="280" height="60" as="geometry">
            <mxRectangle width="280" height="60" as="alternateBounds" />
          </mxGeometry>
        </mxCell>
        <mxCell id="TvVkje1gSHfE_WoLKXOJ-64" value="" style="shape=tableRow;horizontal=0;startSize=0;swimlaneHead=0;swimlaneBody=0;fillColor=none;collapsible=0;dropTarget=0;points=[[0,0.5],[1,0.5]];portConstraint=eastwest;top=0;left=0;right=0;bottom=0;fontSize=25;fontStyle=0" parent="TvVkje1gSHfE_WoLKXOJ-42" vertex="1">
          <mxGeometry y="470" width="360" height="60" as="geometry" />
        </mxCell>
        <mxCell id="TvVkje1gSHfE_WoLKXOJ-65" value="" style="shape=partialRectangle;connectable=0;fillColor=none;top=0;left=0;bottom=0;right=0;editable=1;overflow=hidden;whiteSpace=wrap;html=1;fontSize=25;fontStyle=0" parent="TvVkje1gSHfE_WoLKXOJ-64" vertex="1">
          <mxGeometry width="80" height="60" as="geometry">
            <mxRectangle width="80" height="60" as="alternateBounds" />
          </mxGeometry>
        </mxCell>
        <mxCell id="TvVkje1gSHfE_WoLKXOJ-66" value="maintenance" style="shape=partialRectangle;connectable=0;fillColor=none;top=0;left=0;bottom=0;right=0;align=left;spacingLeft=6;overflow=hidden;whiteSpace=wrap;html=1;fontSize=25;fontStyle=0" parent="TvVkje1gSHfE_WoLKXOJ-64" vertex="1">
          <mxGeometry x="80" width="280" height="60" as="geometry">
            <mxRectangle width="280" height="60" as="alternateBounds" />
          </mxGeometry>
        </mxCell>
        <mxCell id="TvVkje1gSHfE_WoLKXOJ-67" value="" style="shape=tableRow;horizontal=0;startSize=0;swimlaneHead=0;swimlaneBody=0;fillColor=none;collapsible=0;dropTarget=0;points=[[0,0.5],[1,0.5]];portConstraint=eastwest;top=0;left=0;right=0;bottom=0;fontSize=25;fontStyle=0" parent="TvVkje1gSHfE_WoLKXOJ-42" vertex="1">
          <mxGeometry y="530" width="360" height="60" as="geometry" />
        </mxCell>
        <mxCell id="TvVkje1gSHfE_WoLKXOJ-68" value="" style="shape=partialRectangle;connectable=0;fillColor=none;top=0;left=0;bottom=0;right=0;editable=1;overflow=hidden;whiteSpace=wrap;html=1;fontSize=25;fontStyle=0" parent="TvVkje1gSHfE_WoLKXOJ-67" vertex="1">
          <mxGeometry width="80" height="60" as="geometry">
            <mxRectangle width="80" height="60" as="alternateBounds" />
          </mxGeometry>
        </mxCell>
        <mxCell id="TvVkje1gSHfE_WoLKXOJ-69" value="cost&amp;nbsp;" style="shape=partialRectangle;connectable=0;fillColor=none;top=0;left=0;bottom=0;right=0;align=left;spacingLeft=6;overflow=hidden;whiteSpace=wrap;html=1;fontSize=25;fontStyle=0" parent="TvVkje1gSHfE_WoLKXOJ-67" vertex="1">
          <mxGeometry x="80" width="280" height="60" as="geometry">
            <mxRectangle width="280" height="60" as="alternateBounds" />
          </mxGeometry>
        </mxCell>
        <mxCell id="TvVkje1gSHfE_WoLKXOJ-70" value="" style="shape=tableRow;horizontal=0;startSize=0;swimlaneHead=0;swimlaneBody=0;fillColor=none;collapsible=0;dropTarget=0;points=[[0,0.5],[1,0.5]];portConstraint=eastwest;top=0;left=0;right=0;bottom=0;fontSize=25;fontStyle=0" parent="TvVkje1gSHfE_WoLKXOJ-42" vertex="1">
          <mxGeometry y="590" width="360" height="60" as="geometry" />
        </mxCell>
        <mxCell id="TvVkje1gSHfE_WoLKXOJ-71" value="" style="shape=partialRectangle;connectable=0;fillColor=none;top=0;left=0;bottom=0;right=0;editable=1;overflow=hidden;whiteSpace=wrap;html=1;fontSize=25;fontStyle=0" parent="TvVkje1gSHfE_WoLKXOJ-70" vertex="1">
          <mxGeometry width="80" height="60" as="geometry">
            <mxRectangle width="80" height="60" as="alternateBounds" />
          </mxGeometry>
        </mxCell>
        <mxCell id="TvVkje1gSHfE_WoLKXOJ-72" value="product_line" style="shape=partialRectangle;connectable=0;fillColor=none;top=0;left=0;bottom=0;right=0;align=left;spacingLeft=6;overflow=hidden;whiteSpace=wrap;html=1;fontSize=25;fontStyle=0" parent="TvVkje1gSHfE_WoLKXOJ-70" vertex="1">
          <mxGeometry x="80" width="280" height="60" as="geometry">
            <mxRectangle width="280" height="60" as="alternateBounds" />
          </mxGeometry>
        </mxCell>
        <mxCell id="TvVkje1gSHfE_WoLKXOJ-73" value="" style="shape=tableRow;horizontal=0;startSize=0;swimlaneHead=0;swimlaneBody=0;fillColor=none;collapsible=0;dropTarget=0;points=[[0,0.5],[1,0.5]];portConstraint=eastwest;top=0;left=0;right=0;bottom=0;fontSize=25;fontStyle=0" parent="TvVkje1gSHfE_WoLKXOJ-42" vertex="1">
          <mxGeometry y="650" width="360" height="60" as="geometry" />
        </mxCell>
        <mxCell id="TvVkje1gSHfE_WoLKXOJ-74" value="" style="shape=partialRectangle;connectable=0;fillColor=none;top=0;left=0;bottom=0;right=0;editable=1;overflow=hidden;whiteSpace=wrap;html=1;fontSize=25;fontStyle=0" parent="TvVkje1gSHfE_WoLKXOJ-73" vertex="1">
          <mxGeometry width="80" height="60" as="geometry">
            <mxRectangle width="80" height="60" as="alternateBounds" />
          </mxGeometry>
        </mxCell>
        <mxCell id="TvVkje1gSHfE_WoLKXOJ-75" value="start_date" style="shape=partialRectangle;connectable=0;fillColor=none;top=0;left=0;bottom=0;right=0;align=left;spacingLeft=6;overflow=hidden;whiteSpace=wrap;html=1;fontSize=25;fontStyle=0" parent="TvVkje1gSHfE_WoLKXOJ-73" vertex="1">
          <mxGeometry x="80" width="280" height="60" as="geometry">
            <mxRectangle width="280" height="60" as="alternateBounds" />
          </mxGeometry>
        </mxCell>
        <mxCell id="TvVkje1gSHfE_WoLKXOJ-76" value="gold.fact_sales" style="shape=table;startSize=50;container=1;collapsible=1;childLayout=tableLayout;fixedRows=1;rowLines=0;fontStyle=1;align=center;resizeLast=1;html=1;fontSize=25;fillColor=#dae8fc;strokeColor=#6c8ebf;rounded=1;arcSize=27;" parent="1" vertex="1">
          <mxGeometry x="780" y="220" width="360" height="590" as="geometry" />
        </mxCell>
        <mxCell id="TvVkje1gSHfE_WoLKXOJ-77" value="" style="shape=tableRow;horizontal=0;startSize=0;swimlaneHead=0;swimlaneBody=0;fillColor=none;collapsible=0;dropTarget=0;points=[[0,0.5],[1,0.5]];portConstraint=eastwest;top=0;left=0;right=0;bottom=1;fontSize=25;fontStyle=0" parent="TvVkje1gSHfE_WoLKXOJ-76" vertex="1">
          <mxGeometry y="50" width="360" height="50" as="geometry" />
        </mxCell>
        <mxCell id="TvVkje1gSHfE_WoLKXOJ-78" value="PK&lt;span style=&quot;white-space: pre;&quot;&gt;&#x9;&lt;/span&gt;" style="shape=partialRectangle;connectable=0;fillColor=none;top=0;left=0;bottom=0;right=0;fontStyle=1;overflow=hidden;whiteSpace=wrap;html=1;fontSize=25;" parent="TvVkje1gSHfE_WoLKXOJ-77" vertex="1">
          <mxGeometry width="80" height="50" as="geometry">
            <mxRectangle width="80" height="50" as="alternateBounds" />
          </mxGeometry>
        </mxCell>
        <mxCell id="TvVkje1gSHfE_WoLKXOJ-79" value="&lt;span style=&quot;font-weight: normal;&quot;&gt;order_number&lt;/span&gt;" style="shape=partialRectangle;connectable=0;fillColor=none;top=0;left=0;bottom=0;right=0;align=left;spacingLeft=6;fontStyle=5;overflow=hidden;whiteSpace=wrap;html=1;fontSize=25;" parent="TvVkje1gSHfE_WoLKXOJ-77" vertex="1">
          <mxGeometry x="80" width="280" height="50" as="geometry">
            <mxRectangle width="280" height="50" as="alternateBounds" />
          </mxGeometry>
        </mxCell>
        <mxCell id="TvVkje1gSHfE_WoLKXOJ-80" value="" style="shape=tableRow;horizontal=0;startSize=0;swimlaneHead=0;swimlaneBody=0;fillColor=none;collapsible=0;dropTarget=0;points=[[0,0.5],[1,0.5]];portConstraint=eastwest;top=0;left=0;right=0;bottom=0;fontSize=25;fontStyle=0" parent="TvVkje1gSHfE_WoLKXOJ-76" vertex="1">
          <mxGeometry y="100" width="360" height="70" as="geometry" />
        </mxCell>
        <mxCell id="TvVkje1gSHfE_WoLKXOJ-81" value="&lt;b&gt;FK1&lt;/b&gt;" style="shape=partialRectangle;connectable=0;fillColor=none;top=0;left=0;bottom=0;right=0;editable=1;overflow=hidden;whiteSpace=wrap;html=1;fontSize=25;fontStyle=0" parent="TvVkje1gSHfE_WoLKXOJ-80" vertex="1">
          <mxGeometry width="80" height="70" as="geometry">
            <mxRectangle width="80" height="70" as="alternateBounds" />
          </mxGeometry>
        </mxCell>
        <mxCell id="TvVkje1gSHfE_WoLKXOJ-82" value="product_key" style="shape=partialRectangle;connectable=0;fillColor=none;top=0;left=0;bottom=0;right=0;align=left;spacingLeft=6;overflow=hidden;whiteSpace=wrap;html=1;fontSize=25;fontStyle=0" parent="TvVkje1gSHfE_WoLKXOJ-80" vertex="1">
          <mxGeometry x="80" width="280" height="70" as="geometry">
            <mxRectangle width="280" height="70" as="alternateBounds" />
          </mxGeometry>
        </mxCell>
        <mxCell id="TvVkje1gSHfE_WoLKXOJ-83" value="" style="shape=tableRow;horizontal=0;startSize=0;swimlaneHead=0;swimlaneBody=0;fillColor=none;collapsible=0;dropTarget=0;points=[[0,0.5],[1,0.5]];portConstraint=eastwest;top=0;left=0;right=0;bottom=0;fontSize=25;fontStyle=0" parent="TvVkje1gSHfE_WoLKXOJ-76" vertex="1">
          <mxGeometry y="170" width="360" height="40" as="geometry" />
        </mxCell>
        <mxCell id="TvVkje1gSHfE_WoLKXOJ-84" value="&lt;b&gt;FK2&lt;/b&gt;" style="shape=partialRectangle;connectable=0;fillColor=none;top=0;left=0;bottom=0;right=0;editable=1;overflow=hidden;whiteSpace=wrap;html=1;fontSize=25;fontStyle=0" parent="TvVkje1gSHfE_WoLKXOJ-83" vertex="1">
          <mxGeometry width="80" height="40" as="geometry">
            <mxRectangle width="80" height="40" as="alternateBounds" />
          </mxGeometry>
        </mxCell>
        <mxCell id="TvVkje1gSHfE_WoLKXOJ-85" value="customer_key" style="shape=partialRectangle;connectable=0;fillColor=none;top=0;left=0;bottom=0;right=0;align=left;spacingLeft=6;overflow=hidden;whiteSpace=wrap;html=1;fontSize=25;fontStyle=0" parent="TvVkje1gSHfE_WoLKXOJ-83" vertex="1">
          <mxGeometry x="80" width="280" height="40" as="geometry">
            <mxRectangle width="280" height="40" as="alternateBounds" />
          </mxGeometry>
        </mxCell>
        <mxCell id="TvVkje1gSHfE_WoLKXOJ-86" value="" style="shape=tableRow;horizontal=0;startSize=0;swimlaneHead=0;swimlaneBody=0;fillColor=none;collapsible=0;dropTarget=0;points=[[0,0.5],[1,0.5]];portConstraint=eastwest;top=0;left=0;right=0;bottom=0;fontSize=25;fontStyle=0" parent="TvVkje1gSHfE_WoLKXOJ-76" vertex="1">
          <mxGeometry y="210" width="360" height="70" as="geometry" />
        </mxCell>
        <mxCell id="TvVkje1gSHfE_WoLKXOJ-87" value="" style="shape=partialRectangle;connectable=0;fillColor=none;top=0;left=0;bottom=0;right=0;editable=1;overflow=hidden;whiteSpace=wrap;html=1;fontSize=25;fontStyle=0" parent="TvVkje1gSHfE_WoLKXOJ-86" vertex="1">
          <mxGeometry width="80" height="70" as="geometry">
            <mxRectangle width="80" height="70" as="alternateBounds" />
          </mxGeometry>
        </mxCell>
        <mxCell id="TvVkje1gSHfE_WoLKXOJ-88" value="order_date" style="shape=partialRectangle;connectable=0;fillColor=none;top=0;left=0;bottom=0;right=0;align=left;spacingLeft=6;overflow=hidden;whiteSpace=wrap;html=1;fontSize=25;fontStyle=0" parent="TvVkje1gSHfE_WoLKXOJ-86" vertex="1">
          <mxGeometry x="80" width="280" height="70" as="geometry">
            <mxRectangle width="280" height="70" as="alternateBounds" />
          </mxGeometry>
        </mxCell>
        <mxCell id="TvVkje1gSHfE_WoLKXOJ-89" value="" style="shape=tableRow;horizontal=0;startSize=0;swimlaneHead=0;swimlaneBody=0;fillColor=none;collapsible=0;dropTarget=0;points=[[0,0.5],[1,0.5]];portConstraint=eastwest;top=0;left=0;right=0;bottom=0;fontSize=25;fontStyle=0" parent="TvVkje1gSHfE_WoLKXOJ-76" vertex="1">
          <mxGeometry y="280" width="360" height="60" as="geometry" />
        </mxCell>
        <mxCell id="TvVkje1gSHfE_WoLKXOJ-90" value="" style="shape=partialRectangle;connectable=0;fillColor=none;top=0;left=0;bottom=0;right=0;editable=1;overflow=hidden;whiteSpace=wrap;html=1;fontSize=25;fontStyle=0" parent="TvVkje1gSHfE_WoLKXOJ-89" vertex="1">
          <mxGeometry width="80" height="60" as="geometry">
            <mxRectangle width="80" height="60" as="alternateBounds" />
          </mxGeometry>
        </mxCell>
        <mxCell id="TvVkje1gSHfE_WoLKXOJ-91" value="shipping_date" style="shape=partialRectangle;connectable=0;fillColor=none;top=0;left=0;bottom=0;right=0;align=left;spacingLeft=6;overflow=hidden;whiteSpace=wrap;html=1;fontSize=25;fontStyle=0" parent="TvVkje1gSHfE_WoLKXOJ-89" vertex="1">
          <mxGeometry x="80" width="280" height="60" as="geometry">
            <mxRectangle width="280" height="60" as="alternateBounds" />
          </mxGeometry>
        </mxCell>
        <mxCell id="TvVkje1gSHfE_WoLKXOJ-92" value="" style="shape=tableRow;horizontal=0;startSize=0;swimlaneHead=0;swimlaneBody=0;fillColor=none;collapsible=0;dropTarget=0;points=[[0,0.5],[1,0.5]];portConstraint=eastwest;top=0;left=0;right=0;bottom=0;fontSize=25;fontStyle=0" parent="TvVkje1gSHfE_WoLKXOJ-76" vertex="1">
          <mxGeometry y="340" width="360" height="60" as="geometry" />
        </mxCell>
        <mxCell id="TvVkje1gSHfE_WoLKXOJ-93" value="" style="shape=partialRectangle;connectable=0;fillColor=none;top=0;left=0;bottom=0;right=0;editable=1;overflow=hidden;whiteSpace=wrap;html=1;fontSize=25;fontStyle=0" parent="TvVkje1gSHfE_WoLKXOJ-92" vertex="1">
          <mxGeometry width="80" height="60" as="geometry">
            <mxRectangle width="80" height="60" as="alternateBounds" />
          </mxGeometry>
        </mxCell>
        <mxCell id="TvVkje1gSHfE_WoLKXOJ-94" value="due_date" style="shape=partialRectangle;connectable=0;fillColor=none;top=0;left=0;bottom=0;right=0;align=left;spacingLeft=6;overflow=hidden;whiteSpace=wrap;html=1;fontSize=25;fontStyle=0" parent="TvVkje1gSHfE_WoLKXOJ-92" vertex="1">
          <mxGeometry x="80" width="280" height="60" as="geometry">
            <mxRectangle width="280" height="60" as="alternateBounds" />
          </mxGeometry>
        </mxCell>
        <mxCell id="TvVkje1gSHfE_WoLKXOJ-95" value="" style="shape=tableRow;horizontal=0;startSize=0;swimlaneHead=0;swimlaneBody=0;fillColor=none;collapsible=0;dropTarget=0;points=[[0,0.5],[1,0.5]];portConstraint=eastwest;top=0;left=0;right=0;bottom=0;fontSize=25;fontStyle=0" parent="TvVkje1gSHfE_WoLKXOJ-76" vertex="1">
          <mxGeometry y="400" width="360" height="60" as="geometry" />
        </mxCell>
        <mxCell id="TvVkje1gSHfE_WoLKXOJ-96" value="" style="shape=partialRectangle;connectable=0;fillColor=none;top=0;left=0;bottom=0;right=0;editable=1;overflow=hidden;whiteSpace=wrap;html=1;fontSize=25;fontStyle=0" parent="TvVkje1gSHfE_WoLKXOJ-95" vertex="1">
          <mxGeometry width="80" height="60" as="geometry">
            <mxRectangle width="80" height="60" as="alternateBounds" />
          </mxGeometry>
        </mxCell>
        <mxCell id="TvVkje1gSHfE_WoLKXOJ-97" value="sales_amount" style="shape=partialRectangle;connectable=0;fillColor=none;top=0;left=0;bottom=0;right=0;align=left;spacingLeft=6;overflow=hidden;whiteSpace=wrap;html=1;fontSize=25;fontStyle=0" parent="TvVkje1gSHfE_WoLKXOJ-95" vertex="1">
          <mxGeometry x="80" width="280" height="60" as="geometry">
            <mxRectangle width="280" height="60" as="alternateBounds" />
          </mxGeometry>
        </mxCell>
        <mxCell id="TvVkje1gSHfE_WoLKXOJ-98" value="" style="shape=tableRow;horizontal=0;startSize=0;swimlaneHead=0;swimlaneBody=0;fillColor=none;collapsible=0;dropTarget=0;points=[[0,0.5],[1,0.5]];portConstraint=eastwest;top=0;left=0;right=0;bottom=0;fontSize=25;fontStyle=0" parent="TvVkje1gSHfE_WoLKXOJ-76" vertex="1">
          <mxGeometry y="460" width="360" height="60" as="geometry" />
        </mxCell>
        <mxCell id="TvVkje1gSHfE_WoLKXOJ-99" value="" style="shape=partialRectangle;connectable=0;fillColor=none;top=0;left=0;bottom=0;right=0;editable=1;overflow=hidden;whiteSpace=wrap;html=1;fontSize=25;fontStyle=0" parent="TvVkje1gSHfE_WoLKXOJ-98" vertex="1">
          <mxGeometry width="80" height="60" as="geometry">
            <mxRectangle width="80" height="60" as="alternateBounds" />
          </mxGeometry>
        </mxCell>
        <mxCell id="TvVkje1gSHfE_WoLKXOJ-100" value="quantity" style="shape=partialRectangle;connectable=0;fillColor=none;top=0;left=0;bottom=0;right=0;align=left;spacingLeft=6;overflow=hidden;whiteSpace=wrap;html=1;fontSize=25;fontStyle=0" parent="TvVkje1gSHfE_WoLKXOJ-98" vertex="1">
          <mxGeometry x="80" width="280" height="60" as="geometry">
            <mxRectangle width="280" height="60" as="alternateBounds" />
          </mxGeometry>
        </mxCell>
        <mxCell id="TvVkje1gSHfE_WoLKXOJ-101" value="" style="shape=tableRow;horizontal=0;startSize=0;swimlaneHead=0;swimlaneBody=0;fillColor=none;collapsible=0;dropTarget=0;points=[[0,0.5],[1,0.5]];portConstraint=eastwest;top=0;left=0;right=0;bottom=0;fontSize=25;fontStyle=0" parent="TvVkje1gSHfE_WoLKXOJ-76" vertex="1">
          <mxGeometry y="520" width="360" height="60" as="geometry" />
        </mxCell>
        <mxCell id="TvVkje1gSHfE_WoLKXOJ-102" value="" style="shape=partialRectangle;connectable=0;fillColor=none;top=0;left=0;bottom=0;right=0;editable=1;overflow=hidden;whiteSpace=wrap;html=1;fontSize=25;fontStyle=0" parent="TvVkje1gSHfE_WoLKXOJ-101" vertex="1">
          <mxGeometry width="80" height="60" as="geometry">
            <mxRectangle width="80" height="60" as="alternateBounds" />
          </mxGeometry>
        </mxCell>
        <mxCell id="TvVkje1gSHfE_WoLKXOJ-103" value="price" style="shape=partialRectangle;connectable=0;fillColor=none;top=0;left=0;bottom=0;right=0;align=left;spacingLeft=6;overflow=hidden;whiteSpace=wrap;html=1;fontSize=25;fontStyle=0" parent="TvVkje1gSHfE_WoLKXOJ-101" vertex="1">
          <mxGeometry x="80" width="280" height="60" as="geometry">
            <mxRectangle width="280" height="60" as="alternateBounds" />
          </mxGeometry>
        </mxCell>
        <mxCell id="TvVkje1gSHfE_WoLKXOJ-110" value="Sales Data Mart" style="text;html=1;align=center;verticalAlign=middle;resizable=0;points=[];autosize=1;strokeColor=none;fillColor=none;fontSize=33;fontStyle=1" parent="1" vertex="1">
          <mxGeometry x="130" y="90" width="260" height="50" as="geometry" />
        </mxCell>
        <mxCell id="TvVkje1gSHfE_WoLKXOJ-111" value="&lt;font style=&quot;font-size: 27px;&quot;&gt;(Star Schema)&lt;/font&gt;" style="text;html=1;align=center;verticalAlign=middle;resizable=0;points=[];autosize=1;strokeColor=none;fillColor=none;fontSize=30;" parent="1" vertex="1">
          <mxGeometry x="375" y="90" width="200" height="50" as="geometry" />
        </mxCell>
        <mxCell id="TvVkje1gSHfE_WoLKXOJ-112" value="" style="edgeStyle=entityRelationEdgeStyle;fontSize=12;html=1;endArrow=ERzeroToMany;startArrow=ERmandOne;rounded=0;entryX=0;entryY=0.5;entryDx=0;entryDy=0;" parent="1" target="TvVkje1gSHfE_WoLKXOJ-83" edge="1">
          <mxGeometry width="100" height="100" relative="1" as="geometry">
            <mxPoint x="560" y="300" as="sourcePoint" />
            <mxPoint x="660" y="200" as="targetPoint" />
            <Array as="points">
              <mxPoint x="320" y="230" />
            </Array>
          </mxGeometry>
        </mxCell>
        <mxCell id="TvVkje1gSHfE_WoLKXOJ-118" value="" style="edgeStyle=entityRelationEdgeStyle;fontSize=12;html=1;endArrow=ERmandOne;startArrow=ERzeroToMany;rounded=0;startFill=0;endFill=0;entryX=0;entryY=0.5;entryDx=0;entryDy=0;" parent="1" target="TvVkje1gSHfE_WoLKXOJ-43" edge="1">
          <mxGeometry width="100" height="100" relative="1" as="geometry">
            <mxPoint x="1140" y="350" as="sourcePoint" />
            <mxPoint x="1260" y="340" as="targetPoint" />
          </mxGeometry>
        </mxCell>
      </root>
    </mxGraphModel>
  </diagram>
</mxfile>
